# xmcd CD database file
#
# Track frame offsets:
#	150
#	18483
#	36957
#	48793
#	72680
#	103626
#	121474
#	136927
#	154424
#
# Disc length: 2449 seconds
#
# Revision: 1
# Processed by: cddbd v1.5.2PL0 Copyright (c) Steve Scherf et al.
# Submitted via: CDex 1.79
#
DISCID=7d098f09
DTITLE=Darling,Wayne - The Art Of Bass Vol 2. - The Beiderbecke/ Carmichael Songbook
DYEAR=2004
DGENRE=Jazz
TTITLE0=In The Dark
TTITLE1=Candlelights
TTITLE2=Baltimore Oriole
TTITLE3=Flashes
TTITLE4=Wintermoon
TTITLE5=Ooh! What You Said
TTITLE6=In A Mist
TTITLE7=Bread And Gravy
TTITLE8=New Orleans
EXTD=YEAR: 2004
EXTT0=
EXTT1=
EXTT2=
EXTT3=
EXTT4=
EXTT5=
EXTT6=
EXTT7=
EXTT8=
PLAYORDER=
